<svg width="180" height="59" viewBox="0 0 180 59" fill="none" xmlns="http://www.w3.org/2000/svg">
<g clip-path="url(#clip0_1041_5836)">
<path d="M56.1719 55.9969C56.1719 54.7338 56.8652 53.9272 58.0322 53.9272C58.9829 53.9272 59.5629 54.4661 59.5458 55.2555L58.7564 55.4271C58.7632 54.9123 58.4303 54.6308 58.0047 54.6308C57.507 54.6308 57.0677 55.0118 57.0677 55.9488C57.0677 56.8858 57.4761 57.308 58.0939 57.308C58.7117 57.308 58.9177 56.8618 58.9177 56.3401L59.6865 56.4465C59.7037 57.308 59.2609 58.0047 58.0733 58.0047C56.8858 58.0047 56.1685 57.2393 56.1685 55.9934L56.1719 55.9969Z" fill="#225635"/>
<path d="M60.9907 55.9831C60.9907 54.5965 61.7595 53.9238 62.8338 53.9238C63.9081 53.9238 64.6426 54.6343 64.6426 55.9625C64.6426 57.2908 63.9184 58.0013 62.8029 58.0013C61.6875 58.0013 60.9907 57.2771 60.9907 55.9797V55.9831ZM63.764 56.0072C63.764 55.077 63.383 54.6308 62.8098 54.6308C62.4014 54.6308 61.8659 54.8677 61.8659 55.9694C61.8659 56.9991 62.3362 57.308 62.827 57.308C63.2732 57.308 63.764 57.0574 63.764 56.0037V56.0072Z" fill="#225635"/>
<path d="M66.1494 54.0096H67.004V57.1982H68.6172V57.9224H66.1494V54.0096Z" fill="#225635"/>
<path d="M69.942 54.0096H72.8594V54.7098H70.7966V55.6296H72.5814V56.2646H70.7966V57.2188H72.8663V57.9258H69.942V54.013V54.0096Z" fill="#225635"/>
<path d="M74.1019 56.0003C74.1019 54.7441 74.7541 53.9238 76.0171 53.9238C76.9953 53.9238 77.5925 54.4352 77.5925 55.1937L76.7859 55.3894C76.7756 54.8677 76.4187 54.6308 75.9794 54.6308C75.4405 54.6308 74.9943 54.9809 74.9943 55.966C74.9943 56.951 75.4508 57.3114 76.0205 57.3114C76.5354 57.3114 76.8511 57.0437 76.882 56.5289H76.1716V55.9111H77.7023V57.9223H77.1017L77.112 56.8961H77.0228C76.8752 57.6203 76.4908 58.0047 75.7666 58.0047C74.7952 58.0047 74.1019 57.2977 74.1019 56.0003Z" fill="#225635"/>
<path d="M79.2365 54.0096H80.1014V57.9224H79.2365V54.0096Z" fill="#225635"/>
<path d="M81.6047 55.9831C81.6047 54.5965 82.3736 53.9238 83.4479 53.9238C84.5222 53.9238 85.2566 54.6343 85.2566 55.9625C85.2566 57.2908 84.5324 58.0013 83.417 58.0013C82.3015 58.0013 81.6013 57.2771 81.6013 55.9797L81.6047 55.9831ZM84.3814 56.0072C84.3814 55.077 84.0005 54.6308 83.4273 54.6308C83.0188 54.6308 82.4834 54.8677 82.4834 55.9694C82.4834 56.9991 82.9502 57.308 83.4444 57.308C83.8906 57.308 84.3814 57.0574 84.3814 56.0037V56.0072Z" fill="#225635"/>
<path d="M88.9738 54.0096H89.8387V57.9224H88.9738V54.0096Z" fill="#225635"/>
<path d="M92.2926 54.7338H91.1943V54.0096H94.2524V54.7338H93.1507V57.9224H92.2892V54.7338H92.2926Z" fill="#225635"/>
<path d="M96.2192 54.0096H97.417L98.7522 57.9224H97.8289L97.6024 57.1638H96.0373L95.8073 57.9224H94.8806L96.2192 54.0096ZM96.2123 56.5701H97.417L96.8541 54.6892H96.7821L96.2123 56.5701Z" fill="#225635"/>
<path d="M100.094 54.0096H100.949V57.1982H102.562V57.9224H100.094V54.0096Z" fill="#225635"/>
<path d="M103.887 54.0096H104.752V57.9224H103.887V54.0096Z" fill="#225635"/>
<path d="M107.425 54.0096H108.623L109.958 57.9224H109.032L108.805 57.1638H107.24L107.01 57.9224H106.087L107.425 54.0096ZM107.419 56.5701H108.623L108.06 54.6892H107.988L107.419 56.5701Z" fill="#225635"/>
<path d="M111.3 54.0096H112.426L114.111 56.7897H114.159L114.125 54.0096H114.963V57.9224H113.926L112.152 55.029H112.104L112.138 57.9224H111.3V54.0096Z" fill="#225635"/>
<path d="M116.469 55.9831C116.469 54.5965 117.238 53.9238 118.312 53.9238C119.387 53.9238 120.121 54.6343 120.121 55.9625C120.121 57.2908 119.397 58.0013 118.282 58.0013C117.166 58.0013 116.466 57.2771 116.466 55.9797L116.469 55.9831ZM119.246 56.0072C119.246 55.077 118.865 54.6308 118.292 54.6308C117.883 54.6308 117.348 54.8677 117.348 55.9694C117.348 56.9991 117.815 57.308 118.309 57.308C118.755 57.308 119.246 57.0574 119.246 56.0037V56.0072Z" fill="#225635"/>
<path d="M139.688 54.0096H141.034C142.438 54.0096 143.049 54.7338 143.049 55.9317C143.049 57.4727 142.064 57.9258 141.216 57.9258H139.685V54.013L139.688 54.0096ZM140.543 54.7167V57.2188H141.195C141.748 57.2188 142.163 56.8996 142.163 55.9797C142.163 55.0599 141.803 54.7167 141.072 54.7167H140.543Z" fill="#225635"/>
<path d="M144.549 54.0096H147.466V54.7098H145.403V55.6296H147.188V56.2646H145.403V57.2188H147.473V57.9258H144.549V54.013V54.0096Z" fill="#225635"/>
<path d="M148.76 56.7485L149.525 56.5357C149.532 57.0883 149.93 57.3286 150.462 57.3286C150.953 57.3286 151.238 57.1329 151.238 56.8652C151.238 56.5495 150.854 56.4431 150.342 56.3264C149.601 56.1479 148.818 55.942 148.818 55.1045C148.818 54.3872 149.395 53.9238 150.349 53.9238C151.303 53.9238 151.928 54.394 151.921 55.156L151.145 55.3379C151.156 54.8505 150.85 54.5897 150.339 54.5897C149.889 54.5897 149.632 54.7784 149.632 55.0358C149.632 55.355 150.047 55.4683 150.562 55.5884C151.238 55.7497 152.062 55.9488 152.062 56.8275C152.062 57.562 151.461 58.0013 150.418 58.0013C149.374 58.0013 148.77 57.562 148.756 56.7451L148.76 56.7485Z" fill="#225635"/>
<path d="M153.52 54.0096H154.866C156.27 54.0096 156.881 54.7338 156.881 55.9317C156.881 57.4727 155.896 57.9258 155.048 57.9258H153.517V54.013L153.52 54.0096ZM154.375 54.7167V57.2188H155.027C155.58 57.2188 155.995 56.8996 155.995 55.9797C155.995 55.0599 155.635 54.7167 154.904 54.7167H154.375Z" fill="#225635"/>
<path d="M158.38 54.0096H161.298V54.7098H159.235V55.6296H161.02V56.2646H159.235V57.2188H161.305V57.9258H158.38V54.013V54.0096Z" fill="#225635"/>
<path d="M165.314 55.2315H164.761V54.4833C165.111 54.4833 165.362 54.4009 165.43 54.0096H166.172V57.9224H165.31V55.2315H165.314Z" fill="#225635"/>
<path d="M167.72 56.879L168.512 56.7142C168.584 57.1879 168.921 57.2942 169.195 57.2942C169.841 57.2942 170.098 56.7245 170.098 55.9969C170.098 55.7944 170.067 55.5335 170.026 55.3104H169.971C170.005 56.1719 169.377 56.4362 168.869 56.4362C168.231 56.4362 167.672 56.014 167.672 55.2383C167.672 54.6102 168.052 53.9238 169.154 53.9238C170.256 53.9238 170.939 54.6892 170.939 56.0003C170.939 57.3114 170.28 58.015 169.185 58.015C168.379 58.015 167.768 57.6546 167.72 56.8824V56.879ZM169.83 55.1663C169.83 54.7647 169.511 54.6034 169.195 54.6034C168.78 54.6034 168.53 54.8745 168.53 55.2246C168.53 55.5987 168.797 55.8355 169.151 55.8355C169.532 55.8355 169.827 55.5747 169.827 55.1663H169.83Z" fill="#225635"/>
<path d="M172.181 56.8378L172.964 56.6421C172.964 57.1055 173.297 57.3354 173.771 57.3354C174.203 57.3354 174.522 57.1535 174.522 56.7417C174.522 56.2131 174.011 55.99 172.95 56.0827V55.585L174.224 54.7304V54.6892L172.367 54.7029V54.0027H175.137V54.7681L173.887 55.6399V55.688C174.979 55.6296 175.387 56.1582 175.387 56.7863C175.387 57.5345 174.841 58.0082 173.74 58.0082C172.703 58.0082 172.209 57.586 172.181 56.8412V56.8378Z" fill="#225635"/>
<path d="M176.702 55.99C176.702 54.6514 177.368 53.9307 178.366 53.9307C179.365 53.9307 179.997 54.672 179.997 55.9694C179.997 57.2668 179.351 58.0047 178.335 58.0047C177.319 58.0047 176.698 57.2531 176.698 55.99H176.702ZM179.132 56.0003C179.132 55.1045 178.84 54.6068 178.349 54.6068C177.934 54.6068 177.567 54.9878 177.567 55.9694C177.567 56.8995 177.903 57.3217 178.359 57.3217C178.785 57.3217 179.132 56.9407 179.132 56.0003Z" fill="#225635"/>
<path d="M76.2882 19.9344V20.4527H67.6012V19.9344L70.6181 19.3853L68.3632 13.3205H61.6875L59.4943 19.2033L61.6875 19.9344V20.4527H56.1719V19.9344L58.3376 19.1107L65.3462 0.85463H66.7775L73.817 19.2342L76.2848 19.9344H76.2882ZM65.0408 4.45161H64.979L62.0513 12.3149H67.965L65.0373 4.45161H65.0408Z" fill="#225635"/>
<path d="M90.3054 19.5088L92.3167 20.058V20.4527H85.8263V20.058L87.7449 19.5088V11.8584C87.7449 9.54161 86.9212 8.4433 84.879 8.4433C83.5988 8.4433 82.6824 8.68698 81.4639 9.38716V19.5054L83.3551 20.0545V20.4492H76.8647V20.0545L78.876 19.5054V8.93067L76.8956 7.65045V7.37587L81.1619 6.27756L81.2855 6.37023L81.2237 8.80711L81.3438 8.86889C83.1732 7.16307 84.9099 6.30845 86.5574 6.30845C89.2997 6.30845 90.3054 8.38152 90.3054 10.5438V19.5054V19.5088Z" fill="#225635"/>
<path d="M98.5359 20.6964C96.2192 20.6964 95.5499 19.6598 95.5499 17.4975V8.16871H93.415V7.774L95.7936 6.18831L97.5921 3.41507H98.1103V6.8576H102.744V8.16871H98.1103V16.461C98.1103 17.5593 98.203 18.2595 98.8414 18.6851C99.267 18.9288 100.029 19.0523 101.096 19.0523C101.584 19.0523 102.164 19.0214 102.802 18.9905L102.833 19.296C101.491 20.1197 99.9672 20.6998 98.5359 20.6998V20.6964Z" fill="#225635"/>
<path d="M110.635 20.94C106.337 20.94 103.99 17.7996 103.99 13.626C103.99 9.72351 106.612 6.31187 111.06 6.31187C115.508 6.31187 117.674 9.3597 117.674 13.5367C117.674 17.4392 115.114 20.9435 110.635 20.9435V20.94ZM110.724 6.98116C108.62 6.98116 106.945 9.14347 106.945 13.7186C106.945 18.2938 108.805 20.2708 110.937 20.2708C113.192 20.2708 114.715 18.1085 114.715 13.5333C114.715 8.95813 113.01 6.98116 110.724 6.98116Z" fill="#225635"/>
<path d="M133.219 19.5088L135.23 20.058V20.4527H128.736V20.058L130.655 19.5088V11.8584C130.655 9.54161 129.831 8.4433 127.789 8.4433C126.509 8.4433 125.596 8.68698 124.374 9.38716V19.5054L126.265 20.0545V20.4492H119.771V20.0545L121.782 19.5054V8.93067L119.802 7.65045V7.37587L124.068 6.27756L124.192 6.37023L124.13 8.80711L124.254 8.86889C126.083 7.16307 127.82 6.30845 129.467 6.30845C132.21 6.30845 133.215 8.38152 133.215 10.5438V19.5054L133.219 19.5088Z" fill="#225635"/>
<path d="M136.936 7.65045V7.37587L141.387 6.27755L141.511 6.37022V19.5088L143.553 20.058V20.4527H136.816V20.058L138.95 19.5088V8.93067L136.939 7.65045H136.936ZM140.32 0C141.264 0 141.967 0.700175 141.967 1.64747C141.967 2.59477 141.174 3.50774 140.138 3.50774C139.194 3.50774 138.521 2.80757 138.521 1.83281C138.521 0.858058 139.314 0.00343223 140.32 0.00343223V0Z" fill="#225635"/>
<path d="M152.024 20.94C147.727 20.94 145.379 17.7996 145.379 13.626C145.379 9.72351 148.001 6.31187 152.449 6.31187C156.898 6.31187 159.063 9.3597 159.063 13.5367C159.063 17.4392 156.503 20.9435 152.024 20.9435V20.94ZM152.117 6.98116C150.013 6.98116 148.338 9.14347 148.338 13.7186C148.338 18.2938 150.198 20.2708 152.329 20.2708C154.584 20.2708 156.108 18.1085 156.108 13.5333C156.108 8.95813 154.402 6.98116 152.117 6.98116Z" fill="#225635"/>
<path d="M66.8701 36.2478V36.4023C68.4867 36.9205 69.6434 38.3209 70.3127 39.6938C71.3183 41.6433 72.1112 43.3525 72.9967 44.1145C73.9405 44.8764 74.4588 45.151 75.7081 45.3329V45.8512H72.1729C69.7944 45.8512 69.3997 44.9382 68.3014 42.6215L66.6265 39.1172C65.6208 37.075 64.7662 36.7695 63.3967 36.7695H62.2401V44.7872L65.257 45.3364V45.8546H56.1719V45.3364L59.1888 44.7872V27.5059L56.1719 26.9568V26.4385H65.0099C69.6434 26.4385 72.3548 28.4189 72.3548 31.4084C72.3548 33.7251 70.3436 35.5545 66.8667 36.2547L66.8701 36.2478ZM64.3406 27.2279C63.486 27.2279 62.8476 27.2897 62.2366 27.4098V35.9149H64.3406C66.8084 35.9149 68.9432 34.4528 68.9432 31.556C68.9432 28.6591 66.8084 27.2279 64.3406 27.2279Z" fill="#225635"/>
<path d="M86.9555 44.1111C86.9555 44.9931 87.6866 45.2677 89.516 45.0858L89.5778 45.4222C88.9977 45.8203 87.4738 46.3351 86.3789 46.3351C85.2223 46.3351 84.6113 45.6967 84.5187 44.0802L84.3985 44.0184C82.9947 45.4187 81.4434 46.3351 79.7959 46.3351C77.8155 46.3351 76.5353 45.1785 76.5353 43.3182C76.5353 40.5759 79.7959 39.0828 84.3985 38.4719V36.186C84.3985 34.1438 83.0874 33.0764 81.258 33.0764C80.5887 33.0764 79.7959 33.2274 79.003 33.5329C79.6723 34.0821 79.9469 34.7205 79.9469 35.3005C79.9469 36.0625 79.3669 36.7626 78.5157 36.7626C77.6027 36.7626 77.0535 36.0625 77.0535 35.2696C77.0535 33.351 80.2249 31.7344 83.1183 31.7344C85.8023 31.7344 86.959 33.1657 86.959 35.9114V44.1111H86.9555ZM84.3951 39.3574C80.4926 39.3574 79.2124 40.7612 79.2124 42.4052C79.2124 43.7163 80.067 44.5092 81.4056 44.5092C82.2293 44.5092 83.2659 44.2037 84.3917 43.5962V39.3608L84.3951 39.3574Z" fill="#225635"/>
<path d="M90.58 33.049V32.7744L95.0316 31.6761L95.1551 31.7688V44.9039L97.1973 45.4531V45.8512H90.4598V45.4531L92.5947 44.9039V34.3292L90.5834 33.049H90.58ZM93.9641 25.3985C94.908 25.3985 95.6116 26.0987 95.6116 27.046C95.6116 27.9933 94.8188 28.9063 93.7822 28.9063C92.8384 28.9063 92.1657 28.2061 92.1657 27.2313C92.1657 26.2566 92.9585 25.402 93.9641 25.402V25.3985Z" fill="#225635"/>
<path d="M115.419 33.8418C114.139 33.8418 113.377 34.2674 112.158 34.971V44.9073L114.17 45.4565V45.8546H107.676V45.4565L109.567 44.9073V37.075C109.567 34.7273 108.774 33.8452 106.763 33.8452C105.483 33.8452 104.814 34.0889 103.592 34.7891V44.9073L105.483 45.4565V45.8546H98.989V45.4565L101 44.9073V34.3326L99.0199 33.0524V32.7778L103.286 31.6795L103.41 31.7722L103.348 34.2091L103.472 34.2708C105.27 32.565 106.794 31.7104 108.441 31.7104C110.422 31.7104 111.458 32.9906 111.884 34.3944L112.035 34.4562C113.833 32.7504 115.45 31.6829 117.094 31.6829C119.836 31.6829 120.784 33.7869 120.784 35.9492V44.9108L122.826 45.4599V45.8581H116.305V45.4599L118.223 44.9108V37.2603C118.223 34.9436 117.43 33.8452 115.419 33.8452V33.8418Z" fill="#225635"/>
<path d="M131.022 46.3386C126.725 46.3386 124.377 43.1981 124.377 39.0245C124.377 35.122 126.999 31.7104 131.448 31.7104C135.896 31.7104 138.062 34.7582 138.062 38.9352C138.062 42.8377 135.501 46.342 131.022 46.342V46.3386ZM131.115 32.3797C129.011 32.3797 127.336 34.5454 127.336 39.1171C127.336 43.6889 129.196 45.6693 131.327 45.6693C133.582 45.6693 135.106 43.507 135.106 38.9352C135.106 34.3635 133.401 32.3831 131.115 32.3831V32.3797Z" fill="#225635"/>
<path d="M153.606 44.9039L155.617 45.4531V45.8512H149.127V45.4531L151.046 44.9039V37.2534C151.046 34.9367 150.222 33.8384 148.18 33.8384C146.9 33.8384 145.987 34.0821 144.765 34.7822V44.9005L146.656 45.4496V45.8478H140.166V45.4496L142.177 44.9005V34.3258L140.196 33.0455V32.771L144.463 31.6726L144.583 31.7653L144.521 34.2022L144.645 34.264C146.474 32.5582 148.211 31.7035 149.855 31.7035C152.597 31.7035 153.603 33.7766 153.603 35.9423V44.9039H153.606Z" fill="#225635"/>
<path d="M171.831 44.9348V45.2403L167.716 46.3695L167.565 46.3077L167.321 44.2964L167.198 44.2346L166.436 44.9039C165.554 45.7276 164.455 46.3351 162.839 46.3351C160.035 46.3351 157.292 43.9566 157.292 39.4466C157.292 35.4859 159.853 31.7035 164.943 31.7035C165.887 31.7035 166.528 31.7653 167.259 31.9163V26.0644L165.035 24.7533V24.4478L169.7 23.2602L169.823 23.322V44.1385L171.835 44.9314L171.831 44.9348ZM164.394 44.5675C165.55 44.5675 166.528 44.1728 167.259 43.4109V34.2983C166.497 33.1691 165.43 32.438 163.999 32.438C162.049 32.438 160.007 34.3566 160.007 38.9318C160.007 42.2851 161.806 44.571 164.397 44.571L164.394 44.5675Z" fill="#225635"/>
<path d="M173.386 33.049V32.7744L177.838 31.6761L177.958 31.7688V44.9039L180 45.4531V45.8512H173.262V45.4531L175.397 44.9039V34.3292L173.386 33.049ZM176.77 25.3985C177.714 25.3985 178.418 26.0987 178.418 27.046C178.418 27.9933 177.625 28.9063 176.588 28.9063C175.644 28.9063 174.972 28.2061 174.972 27.2313C174.972 26.2566 175.765 25.402 176.77 25.402V25.3985Z" fill="#225635"/>
<path d="M12.634 7.70193C14.2609 7.1459 15.6647 6.66882 16.8831 6.53497C19.9653 6.19861 21.8118 7.20425 22.7111 7.92159C23.6103 7.20425 25.4569 6.19861 28.539 6.53497C29.7609 6.66882 31.1647 7.1459 32.7881 7.70193C35.2696 8.54969 38.3586 9.60338 41.9556 9.77156V7.9868C41.9556 7.35184 41.4717 6.82671 40.8401 6.76836C37.4731 6.45946 34.59 5.4847 32.2527 4.68499C30.7219 4.16329 29.3971 3.71024 28.3605 3.59698C26.8778 3.43566 25.5461 3.62443 24.5061 4.14613C23.7305 4.53398 23.3769 4.98017 23.3735 4.9836C23.3632 5.00076 23.3495 5.01449 23.3357 5.02822C23.3357 5.02822 23.3323 5.03508 23.3289 5.03508C23.0474 5.35771 22.5601 5.41263 22.21 5.15178C22.131 5.09343 22.0693 5.02478 22.0178 4.94928C21.9217 4.83944 21.5681 4.4722 20.916 4.14613C19.8761 3.62443 18.5443 3.43566 17.0616 3.59698C16.0251 3.71024 14.7002 4.15986 13.1695 4.68499C10.8321 5.4847 7.94905 6.45946 4.58203 6.76836C3.9505 6.82671 3.46655 7.35184 3.46655 7.9868V9.77156C7.06353 9.60338 10.1491 8.54969 12.634 7.70193Z" fill="#339B48"/>
<path d="M5.36115 34.5557C4.6644 34.5557 4.01571 34.7548 3.46655 35.0946V36.0316C3.46655 41.1147 5.56021 45.7242 8.95469 49.0946V38.1493C8.95469 36.1654 7.34498 34.5557 5.36115 34.5557Z" fill="#E63334"/>
<path d="M41.959 35.0156C41.4407 34.7239 40.8401 34.5557 40.2017 34.5557C38.7739 34.5557 37.5417 35.3863 36.9617 36.591C36.7351 37.0612 36.6082 37.5898 36.6082 38.1493V48.8853C39.9271 45.4874 41.959 40.8882 41.959 35.8497V35.0122V35.0156Z" fill="#E63334"/>
<path d="M20.5694 36.9583C20.5694 34.9744 18.9597 33.3647 16.9759 33.3647C15.5481 33.3647 14.3159 34.1953 13.7358 35.4C13.5093 35.8703 13.3823 36.3988 13.3823 36.9583V52.3724C15.5549 53.5428 17.9849 54.3185 20.5694 54.5965V36.9583Z" fill="#E63334"/>
<path d="M28.5871 33.3647C27.1593 33.3647 25.9271 34.1953 25.347 35.4C25.1205 35.8703 24.9935 36.3988 24.9935 36.9583V54.5828C27.5849 54.2808 30.0149 53.4776 32.1806 52.2695V36.9583C32.1806 34.9744 30.5709 33.3647 28.5871 33.3647Z" fill="#E63334"/>
<path d="M42.0311 3.30867C42.0311 3.30867 42.0208 3.30867 42.014 3.30867C42.0071 3.30867 42.0037 3.30867 41.9968 3.30867C38.3861 3.14736 35.2833 2.0868 32.7915 1.23904C31.1647 0.683015 29.7609 0.205934 28.5424 0.0720771C25.4603 -0.264282 23.6138 0.741363 22.7145 1.4587C21.8153 0.734498 19.9653 -0.267714 16.8832 0.0652127C15.6613 0.19907 14.2575 0.67615 12.634 1.23217C10.1422 2.08337 7.03951 3.14049 3.4391 3.30181C3.40477 3.30181 0 3.45626 0 7.15277V35.2936C0 41.355 2.35794 47.0525 6.63794 51.3393C10.9179 55.6262 16.612 57.9944 22.6699 58.0047H22.7111C28.69 58.0047 34.3498 55.6434 38.6504 51.3496C43.0196 46.9873 45.4256 41.2177 45.4256 35.1049V7.1562C45.4256 5.92403 44.7151 3.5352 42.0311 3.30867ZM43.7575 35.1083C43.7575 40.7749 41.5266 46.1258 37.4697 50.1724C33.4746 54.1606 28.2232 56.3538 22.6733 56.3401C17.0616 56.3298 11.7829 54.1366 7.81863 50.1621C3.85096 46.1876 1.66806 40.9088 1.66806 35.2936V7.1562C1.66806 5.16551 3.19541 4.98703 3.50431 4.97331C7.35527 4.80169 10.5816 3.69995 13.1729 2.81443C14.7037 2.29273 16.0285 1.83968 17.0651 1.72641C18.5478 1.5651 19.8795 1.75387 20.9195 2.27557C21.575 2.60506 21.9251 2.96888 22.0212 3.07871C22.0727 3.15422 22.1379 3.22287 22.2134 3.28121C22.5669 3.54206 23.0509 3.48715 23.3323 3.16452C23.3323 3.16452 23.3357 3.15765 23.3392 3.15765C23.3529 3.14393 23.3632 3.1302 23.3769 3.11303C23.3804 3.1096 23.7305 2.66684 24.5096 2.27557C25.5495 1.75387 26.8812 1.5651 28.364 1.72641C29.4005 1.83968 30.7253 2.29273 32.2561 2.81443C34.8406 3.69651 38.0566 4.79483 41.8938 4.96987C43.682 5.12089 43.7575 6.95027 43.761 7.1562V35.1049L43.7575 35.1083Z" fill="#225635"/>
<path d="M34.0408 12.8331C32.9734 12.8674 30.9758 12.3286 29.1568 12.4178C26.3355 12.5551 23.9569 13.8491 22.8209 15.8432C22.7831 15.9084 22.7522 15.9702 22.7179 16.032C22.6836 15.9702 22.6493 15.905 22.6149 15.8432C21.4754 13.8491 19.1003 12.5551 16.279 12.4178C14.4565 12.3286 12.459 12.8709 11.395 12.8331C11.2234 12.8262 11.1135 13.0082 11.1959 13.1557C11.7073 14.0927 12.1192 16.1212 13.015 17.7103C14.405 20.1712 16.6257 21.7157 18.9184 21.8393C19.0454 21.8462 19.1655 21.8462 19.2857 21.8462C19.2548 21.8976 19.2239 21.9526 19.193 22.0075C18.0947 24.0222 18.2423 26.7268 19.6049 29.198C20.4869 30.794 21.9937 32.2115 22.5257 33.1382C22.6115 33.2858 22.8209 33.2858 22.9067 33.1382C23.4352 32.2115 24.9454 30.7974 25.8275 29.198C27.1901 26.7234 27.3377 24.0222 26.2394 22.0075C26.2085 21.9526 26.1776 21.9011 26.1467 21.8462C26.2703 21.8462 26.3938 21.8462 26.5242 21.8393C28.817 21.7157 31.0376 20.1712 32.4277 17.7103C33.3235 16.1212 33.7388 14.0927 34.2468 13.1557C34.3291 13.0047 34.2193 12.8262 34.0477 12.8331H34.0408ZM16.7492 17.6657C16.5776 17.6382 16.5433 17.4083 16.6978 17.3328C16.9861 17.1886 17.2915 16.9964 17.422 16.7802C17.5558 16.5639 17.5901 16.207 17.5901 15.8844C17.5901 15.7128 17.8132 15.6407 17.9128 15.7814C18.6507 16.8179 19.7799 17.8476 20.6826 18.5855C20.8439 18.716 20.686 18.9699 20.4972 18.8841C19.4333 18.4105 18.0089 17.8613 16.7492 17.6657ZM23.5588 26.2531C23.2842 26.085 22.9616 25.9271 22.7076 25.9271C22.4536 25.9271 22.131 26.085 21.8564 26.2531C21.7088 26.3424 21.5303 26.1948 21.599 26.0335C22.0932 24.8597 22.3747 23.3598 22.5291 22.2065C22.5566 22.0006 22.8552 22.0006 22.8826 22.2065C23.0371 23.3598 23.3185 24.8597 23.8128 26.0335C23.8814 26.1914 23.7029 26.3424 23.5554 26.2531H23.5588ZM28.6763 17.6657C27.4166 17.8613 25.9922 18.4071 24.9283 18.8841C24.7395 18.9699 24.5816 18.716 24.7429 18.5855C25.6422 17.8476 26.7714 16.8214 27.5127 15.7814C27.6123 15.6407 27.8354 15.7128 27.8354 15.8844C27.8354 16.207 27.8697 16.5639 28.0035 16.7802C28.1374 16.9964 28.4429 17.1886 28.7277 17.3328C28.8822 17.4117 28.8479 17.6417 28.6763 17.6657Z" fill="#EAAF3F"/>
<path d="M10.3585 15.3078C10.307 15.1499 10.2521 14.9886 10.2006 14.8375C8.22018 15.421 5.96864 15.9256 3.46997 16.0354V18.9597C6.37364 18.8258 8.94438 18.1119 11.1341 17.3946C10.8184 16.6669 10.5713 15.9359 10.3619 15.3043L10.3585 15.3078Z" fill="#339B48"/>
<path d="M35.2285 14.8375C35.177 14.992 35.1221 15.1499 35.0706 15.3078C34.8612 15.9359 34.6141 16.6704 34.2983 17.398C36.4881 18.1119 39.0588 18.8258 41.9625 18.9597V16.0354C39.4639 15.9221 37.2123 15.421 35.2319 14.8375H35.2285Z" fill="#339B48"/>
<path d="M33.5158 18.8979C32.9906 19.7456 32.3728 20.4904 31.6932 21.1185C32.0468 21.2352 32.414 21.3588 32.7916 21.4892C35.2731 22.337 38.3621 23.3907 41.959 23.5588V20.6346C38.7087 20.4904 35.8806 19.6804 33.5158 18.9013V18.8979Z" fill="#339B48"/>
<path d="M11.9098 18.8944C9.54504 19.6736 6.71688 20.4836 3.46655 20.6277V23.552C7.06353 23.3838 10.1491 22.3301 12.634 21.4823C13.0116 21.3519 13.3788 21.2284 13.7324 21.1117C13.0528 20.4836 12.435 19.7388 11.9098 18.891V18.8944Z" fill="#339B48"/>
<path d="M17.1303 23.0886C16.5434 22.9136 15.9702 22.6665 15.4244 22.3541C14.7414 22.5532 13.9863 22.8072 13.1729 23.0852C10.5816 23.9707 7.31752 25.0725 3.46655 25.2441V28.1683C7.06353 28.0001 10.1491 26.9465 12.634 26.0987C14.2609 25.5427 15.6647 25.0656 16.8831 24.9317C16.8934 24.9317 16.9003 24.9317 16.9106 24.9317C16.9175 24.3002 16.9861 23.6824 17.1303 23.0852V23.0886Z" fill="#339B48"/>
<path d="M32.2527 23.0886C31.4392 22.8106 30.6876 22.5532 30.0046 22.3576C29.4554 22.6699 28.8822 22.9204 28.2919 23.0921C28.4326 23.6858 28.5047 24.3036 28.5115 24.9352C28.5218 24.9352 28.5321 24.9352 28.5424 24.9352C29.7643 25.069 31.1681 25.5461 32.7915 26.1021C35.273 26.9499 38.362 28.0036 41.959 28.1718V25.2475C38.1081 25.0759 34.844 23.9741 32.2527 23.0886Z" fill="#339B48"/>
<path d="M34.0477 11.2852C34.669 11.2852 35.2524 11.6181 35.5682 12.1501C35.7707 12.4899 35.8462 12.888 35.8016 13.269C37.6378 13.8044 39.7006 14.2609 41.9625 14.3673V11.4431C38.1184 11.2715 34.8577 10.1731 32.2698 9.28762C30.7391 8.76592 29.4039 8.30944 28.3674 8.19617C26.8847 8.03486 25.553 8.22363 24.513 8.74533C23.7373 9.13317 23.3838 9.57936 23.3804 9.5828C23.3701 9.59996 23.3563 9.61369 23.3426 9.62741C23.3426 9.62741 23.3392 9.63428 23.3357 9.63428C23.0543 9.95691 22.5669 10.0118 22.2168 9.75097C22.1379 9.69263 22.0761 9.62398 22.0246 9.54847C21.9285 9.43864 21.575 9.07139 20.9229 8.74533C19.8829 8.22363 18.5512 8.03486 17.0685 8.19617C16.0319 8.30944 14.7071 8.76249 13.1763 9.28419C10.585 10.1697 7.32094 11.2715 3.46997 11.4431V14.3673C5.73181 14.2609 7.79115 13.8044 9.6274 13.2724C9.57934 12.888 9.65829 12.4933 9.86079 12.1501C10.1766 11.6181 10.76 11.2852 11.3813 11.2852H11.4945C11.8206 11.2852 12.3526 11.2131 12.9395 11.1273C13.8079 11.0037 14.786 10.863 15.802 10.8596C16.3408 10.8596 17.0444 10.9385 17.6108 11.0758C19.018 11.3641 20.0579 11.7554 20.8542 12.157C21.2146 12.3423 21.5338 12.5311 21.8118 12.713C21.8221 12.7199 21.8358 12.7302 21.8461 12.737C22.1104 12.9121 22.4125 13.0013 22.7179 13.0013C22.7179 13.0013 22.7214 13.0013 22.7248 13.0013C22.7282 13.0013 22.7282 13.0013 22.7317 13.0013C23.0371 13.0013 23.3392 12.9155 23.6034 12.737C23.6137 12.7302 23.6275 12.7199 23.6378 12.713C23.9158 12.5311 24.235 12.3423 24.5954 12.157C25.3916 11.7554 26.435 11.3641 27.8388 11.0758C28.4017 10.942 29.0984 10.8665 29.6373 10.8596C30.6464 10.8665 31.6246 11.0037 32.4895 11.1273C33.0627 11.2097 33.605 11.2852 33.9345 11.2852" fill="#339B48"/>
</g>
<defs>
<clipPath id="clip0_1041_5836">
<rect width="180" height="58.0116" fill="white"/>
</clipPath>
</defs>
</svg>
