<?xml version="1.0" standalone="no"?>
<!DOCTYPE svg PUBLIC "-//W3C//DTD SVG 20010904//EN"
 "http://www.w3.org/TR/2001/REC-SVG-20010904/DTD/svg10.dtd">
<svg version="1.0" xmlns="http://www.w3.org/2000/svg"
 width="301.000000pt" height="167.000000pt" viewBox="0 0 301.000000 167.000000"
 preserveAspectRatio="xMidYMid meet">

<g transform="translate(0.000000,167.000000) scale(0.100000,-0.100000)"
fill="#000000" stroke="none">
<path d="M1700 967 c-102 -35 -107 -193 -7 -240 43 -21 70 -21 107 -2 49 25
70 62 70 121 0 64 -31 108 -88 124 -44 12 -38 12 -82 -3z m75 -57 c54 -20 55
-102 2 -125 -33 -14 -52 -11 -79 13 -33 28 -19 101 22 115 22 8 26 8 55 -3z"/>
<path d="M2218 973 c-63 -9 -108 -93 -88 -164 15 -53 71 -99 120 -99 38 0 97
38 114 74 20 43 20 65 0 116 -22 54 -78 82 -146 73z m85 -81 c22 -19 22 -64
-1 -91 -24 -31 -79 -31 -104 -1 -58 71 34 154 105 92z"/>
<path d="M380 846 l0 -126 70 0 c124 0 175 37 175 126 0 47 -4 57 -33 86 -31
32 -36 33 -122 36 l-90 4 0 -126z m174 42 c40 -56 4 -108 -74 -108 l-50 0 0
65 0 65 54 0 c45 0 58 -4 70 -22z"/>
<path d="M660 845 l0 -125 25 0 25 0 0 125 0 125 -25 0 -25 0 0 -125z"/>
<path d="M753 938 c97 -236 87 -218 122 -218 31 0 32 2 78 118 26 64 47 121
47 125 0 4 -13 7 -29 7 -26 0 -30 -6 -61 -86 -17 -47 -35 -83 -38 -79 -4 3
-20 41 -37 83 -29 72 -33 77 -63 80 l-33 3 14 -33z"/>
<path d="M1036 855 c-4 -64 -4 -120 -1 -125 3 -6 57 -10 121 -10 l114 0 0 30
0 29 -87 3 c-70 2 -88 6 -88 18 0 12 16 16 73 18 73 3 73 3 70 30 -3 26 -5 27
-75 30 -55 2 -73 6 -73 17 0 11 20 15 88 17 85 3 87 3 87 28 0 25 0 25 -111
28 l-111 3 -7 -116z"/>
<path d="M1310 845 l0 -125 25 0 c24 0 25 2 26 78 0 83 2 82 40 -21 19 -53 23
-58 47 -55 23 3 30 12 52 73 l25 70 3 -72 3 -73 29 0 30 0 0 125 0 125 -40 0
c-43 0 -54 -13 -80 -95 -7 -22 -16 -44 -20 -48 -4 -4 -19 26 -34 68 l-28 75
-39 0 -39 0 0 -125z"/>
<path d="M1890 940 c0 -28 2 -30 40 -30 l40 0 0 -96 0 -95 28 3 27 3 3 93 3
92 39 0 c38 0 40 2 40 30 l0 30 -110 0 -110 0 0 -30z"/>
<path d="M2410 845 l0 -125 25 0 c23 0 25 4 25 40 l0 40 46 0 c44 0 46 -1 61
-40 14 -34 20 -40 46 -40 24 0 28 3 22 18 -26 63 -27 71 -11 94 22 31 20 80
-5 112 -19 25 -25 26 -115 26 l-94 0 0 -125z m175 55 c13 -22 -17 -40 -66 -40
-49 0 -65 10 -55 35 6 18 111 21 121 5z"/>
</g>
</svg>
