<?xml version="1.0" encoding="UTF-8" standalone="no"?>
<!-- Generator: Adobe Illustrator 27.5.0, SVG Export Plug-In . SVG Version: 6.00 Build 0)  -->

<svg
   version="1.1"
   id="Layer_1"
   x="0px"
   y="0px"
   viewBox="0 0 539.79999 133.39999"
   xml:space="preserve"
   sodipodi:docname="LOGO_HORIZONTAL_RGB-positivo.svg"
   width="539.79999"
   height="133.39999"
   inkscape:version="1.1.2 (0a00cf5339, 2022-02-04)"
   xmlns:inkscape="http://www.inkscape.org/namespaces/inkscape"
   xmlns:sodipodi="http://sodipodi.sourceforge.net/DTD/sodipodi-0.dtd"
   xmlns="http://www.w3.org/2000/svg"
   xmlns:svg="http://www.w3.org/2000/svg"><defs
   id="defs65" /><sodipodi:namedview
   id="namedview63"
   pagecolor="#ffffff"
   bordercolor="#666666"
   borderopacity="1.0"
   inkscape:pageshadow="2"
   inkscape:pageopacity="0.0"
   inkscape:pagecheckerboard="0"
   showgrid="false"
   fit-margin-top="0"
   fit-margin-left="0"
   fit-margin-right="0"
   fit-margin-bottom="0"
   inkscape:zoom="1.5666667"
   inkscape:cx="50.106383"
   inkscape:cy="66.06383"
   inkscape:window-width="1324"
   inkscape:window-height="704"
   inkscape:window-x="0"
   inkscape:window-y="0"
   inkscape:window-maximized="1"
   inkscape:current-layer="Layer_1" />
<style
   type="text/css"
   id="style2">
	.st0{fill:#FF5117;}
</style>
<g
   id="Layer_2_00000037679501636230389660000015428553215928911767_"
   transform="translate(-30.1,-83.3)">
</g>
<g
   id="Layer_1_00000103949419672302780990000006420712079654338223_"
   transform="translate(-30.1,-83.3)">
	<g
   id="g59">
		<g
   id="g39">
			<path
   d="m 180.9,102.7 c 2.4,0.1 5,0.2 7.5,0.2 2.6,0 5.1,-0.1 7.8,-0.2 v 1.8 c -5.2,0.4 -5.2,0.8 -5.2,8.3 v 11 c 0,2.9 0,6.1 1.2,9.1 2.2,5.3 7.2,6.9 10.5,6.9 3,0 5.8,-1.1 8,-3.4 3.3,-3.5 4,-7.5 4,-22 0,-9.2 0,-9.5 -5.6,-9.9 v -1.8 c 2.2,0.1 4.5,0.1 6.7,0.1 2,0 4,-0.1 6,-0.1 v 1.8 c -2.1,0.1 -3.5,0.3 -4.1,1.8 -0.2,0.5 -0.3,1 -0.5,3.1 -0.3,3.7 -0.3,5.8 -0.3,6.4 -0.4,11.6 -0.6,14.7 -2,17.9 -2.9,6.6 -9.3,8.5 -14.2,8.5 -4.6,0 -8.5,-1.6 -11,-4 -4,-3.8 -4.1,-8.7 -4.1,-12.4 v -15.6 c -0.1,-4.8 -0.4,-5.3 -4.6,-5.7 z"
   id="path5" />
			<path
   d="m 224.8,102.7 c 1.7,0.1 3.4,0.1 5.1,0.1 1.7,0 3.4,-0.1 5.1,-0.1 1.5,2.3 2.4,3.6 5.2,7 3.9,4.8 14.8,17.7 19,22.6 0.1,-15.4 0.1,-18.7 0,-21.4 -0.2,-6.3 -0.4,-6.4 -6.5,-6.5 v -1.8 c 2.3,0.1 4.5,0.1 6.8,0.1 2.2,0 4.1,-0.1 6.6,-0.1 v 1.8 c -3.6,0.3 -4.5,0.4 -4.6,5.1 -0.1,2.8 -0.5,27.7 -0.6,32.5 H 260 l -27.7,-33 c 0,4.2 -0.1,23.7 0.2,26.7 0.3,3.4 1.9,3.8 6.5,4.1 v 1.8 c -2.4,-0.1 -4.8,-0.1 -7.2,-0.1 -2.2,0 -4.5,0.1 -6.8,0.1 v -1.8 c 1.7,0 3.4,-0.1 4.3,-1.2 0.6,-0.8 0.6,-1.6 0.8,-6.4 l 0.3,-25.1 c -2,-1.7 -3.1,-2.2 -5.6,-2.6 z"
   id="path7" />
			<path
   d="m 269.4,102.7 c 2.5,0.2 5,0.4 7.6,0.4 2.4,0 4.9,-0.2 7.3,-0.4 v 1.8 c -4.7,0.5 -4.7,1 -4.7,7.9 V 132 c 0,6.7 0.1,7.3 4.7,7.7 v 1.8 c -2.5,-0.1 -4.8,-0.2 -7.2,-0.2 -2.6,0 -5.2,0.1 -7.7,0.2 v -1.8 c 4.5,-0.5 4.6,-1 4.7,-5.9 0.1,-2.1 0.1,-4.3 0.1,-6.5 v -10 c -0.1,-6.8 -0.1,-8.3 -0.3,-9.7 -0.3,-2.4 -1.1,-2.7 -4.5,-3.1 z"
   id="path9" />
			<path
   d="m 287.4,102.7 c 2.6,0.1 5.4,0.2 8.1,0.2 2.8,0 5.6,-0.1 8.3,-0.2 v 1.8 c -3.4,0.2 -5.2,0.3 -5.2,2.6 0,1.6 4.9,15.4 5.9,17.9 1.5,4.3 1.7,4.8 3.1,9.3 3.8,-9.6 6.3,-16 8.4,-22 0.4,-1.3 1.4,-4.1 1.4,-5 0,-2.6 -3.1,-2.8 -5.2,-2.9 v -1.8 c 2.2,0.1 4.3,0.2 6.4,0.2 2.2,0 4.4,-0.1 6.5,-0.2 v 1.8 c -4.1,0.7 -4.5,1.8 -7.5,9.3 -3.7,9.6 -7.6,19 -11.4,28.5 H 305 l -11.6,-31.9 c -1.7,-4.4 -2.5,-5.5 -6.1,-5.9 v -1.7 z"
   id="path11" />
			<path
   d="M 328.4,102.7 H 357 c 1.8,4.3 2.3,5.5 4.3,9.6 l -1,0.8 c -4.5,-4.9 -4.5,-4.9 -5.5,-5.8 -2.4,-2.2 -4.2,-2.6 -10.6,-2.7 h -5.7 v 15.8 h 5.5 c 5.2,0.1 6.1,-0.8 7.4,-6.5 h 1.4 c -0.1,2.6 -0.2,5.2 -0.2,7.8 0,2.5 0.1,5.1 0.2,7.5 h -1.4 c -1.3,-6.3 -2.5,-6.6 -8.6,-6.6 h -4.3 v 9.3 c 0.1,7.5 0.1,7.7 7.6,7.8 h 2.9 c 4.6,-0.1 5.5,-0.1 12.3,-9.3 l 1.2,0.7 c -1.5,4.7 -1.9,5.8 -3.1,10.4 h -31 v -1.8 c 4.2,-0.3 4.4,-1.4 4.5,-3.9 0.1,-2.6 0.2,-5.3 0.2,-10.8 v -10.3 c 0,-1.7 0,-7.3 -0.4,-8.3 -0.5,-1.4 -1.5,-1.6 -4.2,-1.9 z"
   id="path13" />
			<path
   d="m 365.4,102.7 c 2.4,0 4.8,0.1 7.2,0.1 1,0 5.9,-0.1 7,-0.1 2.8,0 6.3,0.1 8.6,0.9 3.9,1.4 5.9,5.1 5.9,8.6 0,1.2 -0.3,3.2 -1.3,5.1 -1.9,3.5 -4.8,4.7 -6.7,5.5 3.5,4.4 7,8.9 10.5,13.3 2.2,2.8 2.9,3.2 5.8,3.6 v 1.8 c -1.5,-0.1 -3,-0.1 -4.6,-0.1 -1.4,0 -2.7,0.1 -4.2,0.1 -2,-2.9 -2.5,-3.5 -4.9,-6.6 -2.9,-3.6 -5.7,-7.3 -8.6,-11 -0.8,0 -1.5,0.1 -2.3,0.1 -0.8,0 -1.5,-0.1 -2.3,-0.1 0,6.9 0.1,9.6 0.1,11.3 0.2,4 1,4 5.9,4.5 v 1.8 c -2.7,-0.1 -5.4,-0.2 -8.1,-0.2 -2.6,0 -4.9,0.1 -8,0.2 v -1.8 c 4.6,-0.4 4.6,-0.5 4.6,-8.4 v -15.8 c 0,-1.5 0,-7.4 -0.4,-9 -0.4,-1.5 -1.7,-1.6 -4.2,-2 z m 10.1,1.8 V 122 c 0.8,0.1 1.6,0.1 2.4,0.1 5,0 6.8,-1.3 8.1,-2.5 1.5,-1.5 2.5,-3.7 2.5,-6.5 0,-2.6 -0.8,-4.9 -2.4,-6.5 -2,-2 -3.8,-2 -7.3,-2 z"
   id="path15" />
			<path
   d="m 406,129.6 c 0.4,2 0.8,4 2.2,6 2.1,3.1 5.6,4.8 8.8,4.8 3.3,0 8.1,-2.1 8.1,-7.7 0,-1.9 -0.7,-4.3 -3.2,-6.1 -1.5,-1.1 -2.5,-1.4 -7.2,-3 -3,-1 -9.2,-3.1 -9.2,-10.5 0,-6.2 4.6,-11 11.5,-11 3.6,0 5.8,1.3 7.8,2.4 l 2.3,-1.7 1.3,11.3 -1.3,0.3 c -0.7,-2.7 -2.9,-10.4 -9.9,-10.4 -4.7,0 -7.2,3.2 -7.2,6.5 0,1.8 0.6,3.6 1.9,5 1.6,1.7 3.5,2.3 7.5,3.6 3.9,1.2 10.4,3.2 10.4,11.5 0,7.1 -5.9,11.7 -13,11.7 -4.8,0 -7.3,-1.7 -8.9,-2.7 l -3,2 c -0.1,-5.7 -0.1,-7 -0.4,-11.7 z"
   id="path17" />
			<path
   d="m 433.6,102.7 c 2.5,0.2 5,0.4 7.6,0.4 2.4,0 4.9,-0.2 7.3,-0.4 v 1.8 c -4.7,0.5 -4.7,1 -4.7,7.9 V 132 c 0,6.7 0.1,7.3 4.7,7.7 v 1.8 c -2.5,-0.1 -4.8,-0.2 -7.2,-0.2 -2.6,0 -5.2,0.1 -7.7,0.2 v -1.8 c 4.5,-0.5 4.6,-1 4.7,-5.9 0.1,-2.1 0.1,-4.3 0.1,-6.5 v -10 c -0.1,-6.8 -0.1,-8.3 -0.3,-9.7 -0.3,-2.4 -1.1,-2.7 -4.5,-3.1 z"
   id="path19" />
			<path
   d="m 452.2,102.7 c 1.8,0 3.6,0.1 5.4,0.1 0.9,0 3.4,-0.1 6,-0.1 2.5,-0.1 5.1,-0.1 6.1,-0.1 4.6,0 12.7,0.2 18.1,7.4 2.7,3.5 3.9,7.8 3.9,12 0,5.2 -1.9,11.2 -7.2,15.2 -5.7,4.3 -12.9,4.3 -16.1,4.3 -1.3,0 -7.6,-0.1 -9.1,-0.1 -2.3,0 -4.5,0 -7.1,0.1 v -1.8 c 4.6,-0.5 4.6,-0.7 4.7,-7.2 0,-1.5 0.1,-3.1 0.1,-4.6 v -13.2 c 0,-1.7 -0.1,-7.1 -0.4,-8.2 -0.6,-1.4 -1.7,-1.6 -4.3,-1.9 v -1.9 z m 10.3,29.1 c 0,1.6 0.1,4.2 0.1,4.8 0.2,1.5 0.5,3.1 6,3.1 10.3,0 16.6,-7.7 16.6,-18.2 0,-3.1 -0.7,-6.6 -2.4,-9.6 -4.4,-7.5 -12,-7.5 -15.1,-7.5 -1.4,0 -3.5,0 -5.2,0.1 z"
   id="path21" />
			<path
   d="m 488.2,139.7 c 4.9,-0.4 5.6,-1.4 7.2,-5.9 3.5,-9.7 7,-19.3 10.5,-29 -0.3,-0.5 -0.4,-0.8 -0.9,-1.3 3.5,-0.7 4.6,-1.3 6.3,-2.6 1.4,4.5 1.7,5.4 2.7,8.5 l 7.3,22.8 c 1.9,6 2.6,7 6.8,7.5 v 1.8 c -2.6,-0.1 -5.4,-0.1 -8.1,-0.1 -2.7,0 -5.4,0.1 -8.1,0.1 v -1.8 c 2.7,-0.2 4.8,-0.4 4.8,-2.6 0,-1.6 -2.3,-8.9 -3.1,-11.4 h -13.4 c -0.7,2.2 -1.4,4.4 -2.1,6.5 -0.5,1.5 -1.2,3.6 -1.2,4.4 0,2.7 3.4,2.9 5.4,3 v 1.8 c -2.3,-0.1 -4.7,-0.1 -7.1,-0.1 -2.4,0 -4.8,0.1 -7.2,0.1 v -1.7 z m 24.7,-16.4 c -1.8,-5.5 -3.9,-12.1 -5.8,-16.4 l -5.9,16.4 z"
   id="path23" />
			<path
   d="m 530.4,102.7 c 1.8,0 3.6,0.1 5.4,0.1 0.9,0 3.4,-0.1 6,-0.1 2.5,-0.1 5.1,-0.1 6.1,-0.1 4.6,0 12.7,0.2 18.1,7.4 2.7,3.5 3.9,7.8 3.9,12 0,5.2 -1.9,11.2 -7.2,15.2 -5.7,4.3 -12.9,4.3 -16.1,4.3 -1.3,0 -7.6,-0.1 -9.1,-0.1 -2.3,0 -4.5,0 -7.1,0.1 v -1.8 c 4.6,-0.5 4.6,-0.7 4.7,-7.2 0,-1.5 0.1,-3.1 0.1,-4.6 v -13.2 c 0,-1.7 -0.1,-7.1 -0.4,-8.2 -0.6,-1.4 -1.7,-1.6 -4.3,-1.9 v -1.9 z m 10.3,29.1 c 0,1.6 0.1,4.2 0.1,4.8 0.2,1.5 0.5,3.1 6,3.1 10.3,0 16.6,-7.7 16.6,-18.2 0,-3.1 -0.7,-6.6 -2.4,-9.6 -4.4,-7.5 -12,-7.5 -15.1,-7.5 -1.4,0 -3.5,0 -5.2,0.1 z"
   id="path25" />
			<path
   d="m 181.6,158.4 c 1.8,0 3.6,0.1 5.4,0.1 0.9,0 3.4,-0.1 6,-0.1 2.5,-0.1 5.1,-0.1 6.1,-0.1 4.6,0 12.7,0.2 18.1,7.4 2.7,3.5 3.9,7.8 3.9,12 0,5.2 -1.9,11.2 -7.2,15.2 -5.7,4.3 -12.9,4.3 -16.1,4.3 -1.3,0 -7.6,-0.1 -9.1,-0.1 -2.3,0 -4.5,0 -7.1,0.1 v -1.8 c 4.6,-0.5 4.6,-0.7 4.7,-7.2 0,-1.5 0.1,-3.1 0.1,-4.6 v -13.2 c 0,-1.7 -0.1,-7.1 -0.4,-8.2 -0.6,-1.4 -1.7,-1.6 -4.3,-1.9 z m 10.4,29.1 c 0,1.6 0.1,4.2 0.1,4.8 0.2,1.5 0.5,3.1 6,3.1 10.3,0 16.6,-7.7 16.6,-18.2 0,-3.1 -0.7,-6.6 -2.4,-9.6 -4.4,-7.5 -12,-7.5 -15.1,-7.5 -1.4,0 -3.5,0 -5.2,0.1 z"
   id="path27" />
			<path
   d="m 223.7,158.4 h 28.7 c 1.8,4.3 2.3,5.5 4.3,9.6 l -1,0.8 c -4.5,-4.9 -4.5,-4.9 -5.5,-5.8 -2.4,-2.2 -4.2,-2.6 -10.6,-2.7 h -5.7 v 15.8 h 5.5 c 5.2,0.1 6.1,-0.8 7.4,-6.5 h 1.4 c -0.1,2.6 -0.2,5.2 -0.2,7.8 0,2.5 0.1,5.1 0.2,7.5 h -1.4 c -1.3,-6.3 -2.5,-6.6 -8.6,-6.6 h -4.3 v 9.3 c 0.1,7.5 0.1,7.7 7.6,7.8 h 2.9 c 4.6,-0.1 5.5,-0.1 12.3,-9.3 l 1.2,0.7 c -1.5,4.7 -1.9,5.8 -3.1,10.4 h -31 v -1.8 c 4.2,-0.3 4.4,-1.4 4.5,-3.9 0.1,-2.6 0.2,-5.3 0.2,-10.8 v -10.3 c 0,-1.7 0,-7.3 -0.4,-8.3 -0.5,-1.4 -1.5,-1.6 -4.2,-1.9 v -1.8 z"
   id="path29" />
			<path
   d="m 275.2,158.3 c 2.4,0.1 5,0.2 7.6,0.2 2.6,0 5.2,-0.1 7.8,-0.2 v 1.8 c -3.1,0.3 -4.2,0.4 -4.8,1.9 -0.4,1.1 -0.4,3.6 -0.6,8.8 v 11 c 0,3.8 0,6.9 0.2,9.3 0.1,0.9 0.1,2.3 0.9,3 1.5,1.4 8.3,1.2 10.3,1 3.1,-0.2 6.5,-0.4 11.3,-10.9 l 1.9,0.6 c -1.8,5.4 -2.2,6.9 -3.7,12.2 h -30.9 v -1.8 c 3,-0.3 4.2,-0.5 4.4,-2.9 0.1,-1.3 0.1,-2.4 0.3,-9.4 v -14.3 c 0,-1.4 -0.1,-5.5 -0.4,-6.5 -0.5,-1.5 -1.4,-1.6 -4.3,-2 z"
   id="path31" />
			<path
   d="m 310.8,158.4 c 2.5,0.2 5,0.4 7.6,0.4 2.4,0 4.9,-0.2 7.3,-0.4 v 1.8 c -4.7,0.5 -4.7,1 -4.7,7.9 v 19.6 c 0,6.7 0.1,7.3 4.7,7.7 v 1.8 c -2.5,-0.1 -4.8,-0.2 -7.2,-0.2 -2.6,0 -5.2,0.1 -7.7,0.2 v -1.8 c 4.5,-0.5 4.6,-1 4.7,-5.9 0.1,-2.1 0.1,-4.3 0.1,-6.5 v -10 c -0.1,-6.8 -0.1,-8.3 -0.3,-9.7 -0.3,-2.4 -1.1,-2.7 -4.5,-3.1 z"
   id="path33" />
			<path
   d="m 331.1,158.4 c 1.8,0.1 3.7,0.1 5.5,0.1 1.8,0 3.6,-0.1 5.5,-0.1 l 12.9,31.1 13.7,-31.1 c 1.8,0 3.5,0.1 5.4,0.1 1.9,0 3.6,-0.1 5.5,-0.1 v 1.8 c -4.6,0.5 -4.7,1 -4.7,5.5 l 0.1,23.5 c 0.1,4.8 0.1,5.7 4.6,6.1 v 1.8 c -2.5,-0.1 -5.1,-0.1 -7.6,-0.1 -2.3,0 -4.5,0.1 -7.4,0.1 v -1.8 c 4.3,-0.3 4.9,-0.7 5,-4.8 v -29 l -16,36 h -0.9 l -15.2,-36 -0.3,25.4 c -0.1,6.6 -0.1,7.8 4.7,8.3 v 1.8 c -1.9,-0.1 -3.9,-0.1 -5.9,-0.1 -2,0 -3.4,0.1 -5.9,0.1 v -1.8 c 4.6,-0.4 4.7,-1.6 4.9,-8.8 l 0.5,-21.9 c -0.1,-3.8 -0.3,-4.1 -4.3,-4.6 v -1.5 z"
   id="path35" />
			<path
   d="m 382,195.4 c 4.9,-0.4 5.6,-1.4 7.2,-5.9 3.5,-9.7 7,-19.3 10.5,-29 -0.3,-0.5 -0.4,-0.8 -0.9,-1.3 3.5,-0.7 4.6,-1.3 6.3,-2.6 1.4,4.5 1.7,5.4 2.7,8.5 l 7.3,22.8 c 1.9,6 2.6,7 6.8,7.5 v 1.8 c -2.6,-0.1 -5.4,-0.1 -8.1,-0.1 -2.7,0 -5.4,0.1 -8.1,0.1 v -1.8 c 2.6,-0.2 4.8,-0.4 4.8,-2.6 0,-1.6 -2.3,-8.9 -3.1,-11.4 H 394 c -0.7,2.2 -1.4,4.4 -2.1,6.5 -0.5,1.5 -1.2,3.6 -1.2,4.4 0,2.7 3.4,2.9 5.4,3 v 1.8 c -2.3,-0.1 -4.7,-0.1 -7.1,-0.1 -2.4,0 -4.8,0.1 -7.2,0.1 v -1.7 z m 24.7,-16.5 c -1.8,-5.5 -3.9,-12.1 -5.8,-16.4 l -5.9,16.4 z"
   id="path37" />
		</g>
		<g
   id="g57">
			<polygon
   class="st0"
   points="114.6,107 96.8,130.7 79,107 96.8,83.3 "
   id="polygon41" />
			<polygon
   class="st0"
   points="139.8,132.2 110.4,136.4 114.6,107 143.9,102.8 "
   id="polygon43" />
			<polygon
   class="st0"
   points="139.8,167.8 116.1,150 139.8,132.2 163.5,150 "
   id="polygon45" />
			<polygon
   class="st0"
   points="114.6,193 110.4,163.6 139.8,167.8 143.9,197.2 "
   id="polygon47" />
			<polygon
   class="st0"
   points="79,193 96.8,169.3 114.6,193 96.8,216.7 "
   id="polygon49" />
			<polygon
   class="st0"
   points="53.8,167.8 83.1,163.6 79,193 49.6,197.2 "
   id="polygon51" />
			<polygon
   class="st0"
   points="53.8,132.2 77.5,150 53.8,167.8 30.1,150 "
   id="polygon53" />
			<polygon
   class="st0"
   points="79,107 83.1,136.4 53.8,132.2 49.6,102.8 "
   id="polygon55" />
		</g>
	</g>
</g>
</svg>
